<svg id="logo" xmlns="http://www.w3.org/2000/svg" xmlns:xlink="http://www.w3.org/1999/xlink" width="159.456" height="122.127" viewBox="0 0 159.456 122.127">
  <defs>
    <linearGradient id="linear-gradient" y1="0.5" x2="1" y2="0.5" gradientUnits="objectBoundingBox">
      <stop offset="0" stop-color="#dd1715"/>
      <stop offset="1" stop-color="#761915"/>
    </linearGradient>
  </defs>
  <g id="Groupe_8439" data-name="Groupe 8439" transform="translate(0 87.695)">
    <path id="Tracé_10584" data-name="Tracé 10584" d="M242.1,510.812h.69v7.278h3.577v.6H242.1Z" transform="translate(-242.1 -510.112)" fill="#454545"/>
    <path id="Tracé_10585" data-name="Tracé 10585" d="M242.949,514.414c0-2.452,1.215-3.309,2.729-3.309,1.455,0,2.157.946,2.157,3.029v.224h-4.219c.058,2.195,1.081,2.553,2.507,2.553a6.8,6.8,0,0,0,1.5-.258l.129.537a5.85,5.85,0,0,1-1.911.285C244.059,517.476,242.949,516.72,242.949,514.414Zm4.2-.571c0-1.366-.5-2.261-1.607-2.261-1.034,0-1.794.75-1.923,2.261Z" transform="translate(-237.987 -508.765)" fill="#454545"/>
    <path id="Tracé_10586" data-name="Tracé 10586" d="M244,517.213l.14-.549a5.719,5.719,0,0,0,1.549.28c.988,0,1.724-.4,1.724-1.081,0-1.6-3.2-1.1-3.2-3.158,0-1.036.836-1.6,2.04-1.6a4.811,4.811,0,0,1,1.385.235l-.128.521a4.512,4.512,0,0,0-1.385-.224c-.842,0-1.3.459-1.3,1.024,0,1.6,3.185,1.148,3.185,3.113,0,1.338-1.239,1.691-2.274,1.691A5.849,5.849,0,0,1,244,517.213Z" transform="translate(-232.907 -508.765)" fill="#454545"/>
    <path id="Tracé_10587" data-name="Tracé 10587" d="M245.306,514.9a3.847,3.847,0,0,1,4.132-4.1,5.418,5.418,0,0,1,2.332.381l-.2.566a6.376,6.376,0,0,0-2.11-.341,3.137,3.137,0,0,0-3.436,3.388c0,2.542,1.712,3.555,3.67,3.555a7.191,7.191,0,0,0,1.934-.3l.187.549a5.87,5.87,0,0,1-2.332.33A3.865,3.865,0,0,1,245.306,514.9Z" transform="translate(-226.569 -510.204)" fill="#454545"/>
    <path id="Tracé_10588" data-name="Tracé 10588" d="M246.579,514.369c0-2.127,1.2-3.264,2.811-3.264,1.8,0,2.7,1.137,2.7,3.2,0,2.15-1.186,3.174-2.77,3.174C247.643,517.476,246.579,516.384,246.579,514.369Zm4.856-.067c0-1.159-.38-2.676-2.081-2.676-1.677,0-2.11,1.5-2.11,2.688,0,1.327.5,2.643,2.133,2.643,1.655,0,2.058-1.405,2.058-2.654Z" transform="translate(-220.402 -508.765)" fill="#454545"/>
    <path id="Tracé_10589" data-name="Tracé 10589" d="M247.84,511.257h.637v.711a4.015,4.015,0,0,1,2.262-.868c1.841,0,1.934,1.338,1.934,2.285v3.953h-.62v-3.773c0-1.114-.14-1.909-1.443-1.909a4.758,4.758,0,0,0-2.133.868v4.815h-.637Z" transform="translate(-214.288 -508.76)" fill="#454545"/>
    <path id="Tracé_10590" data-name="Tracé 10590" d="M248.965,517.213l.14-.549a5.719,5.719,0,0,0,1.549.28c.988,0,1.724-.4,1.724-1.081,0-1.6-3.2-1.1-3.2-3.158,0-1.036.836-1.6,2.04-1.6a4.813,4.813,0,0,1,1.385.235l-.129.521a4.51,4.51,0,0,0-1.385-.224c-.842,0-1.292.459-1.292,1.024,0,1.6,3.18,1.148,3.18,3.113,0,1.338-1.239,1.691-2.274,1.691A5.88,5.88,0,0,1,248.965,517.213Z" transform="translate(-208.844 -508.765)" fill="#454545"/>
    <path id="Tracé_10591" data-name="Tracé 10591" d="M249.874,514.414c0-2.452,1.21-3.309,2.723-3.309,1.461,0,2.157.946,2.157,3.029v.224H250.54c.059,2.195,1.081,2.553,2.5,2.553a6.733,6.733,0,0,0,1.5-.258l.129.537a5.81,5.81,0,0,1-1.911.285C250.979,517.476,249.874,516.72,249.874,514.414Zm4.2-.571c0-1.366-.5-2.261-1.613-2.261-1.034,0-1.794.75-1.917,2.261Z" transform="translate(-204.441 -508.765)" fill="#454545"/>
    <path id="Tracé_10592" data-name="Tracé 10592" d="M251.008,511.236h.643v.812a2.09,2.09,0,0,1,1.864-.946,2.063,2.063,0,0,1,.707.1l-.129.531a2.9,2.9,0,0,0-.719-.078,2.118,2.118,0,0,0-1.724,1.092v4.569h-.643Z" transform="translate(-198.947 -508.74)" fill="#454545"/>
    <path id="Tracé_10593" data-name="Tracé 10593" d="M251.638,511.133h.725l1.4,4.412.427,1.316.479-1.349,1.6-4.378h.655l-2.227,6.08h-1.034Z" transform="translate(-195.895 -508.636)" fill="#454545"/>
    <path id="Tracé_10594" data-name="Tracé 10594" d="M252.684,514.414c0-2.452,1.216-3.309,2.729-3.309,1.455,0,2.157.946,2.157,3.029v.224h-4.22c.058,2.195,1.081,2.553,2.507,2.553a6.8,6.8,0,0,0,1.5-.258l.129.537a5.847,5.847,0,0,1-1.911.285C253.794,517.476,252.684,516.72,252.684,514.414Zm4.2-.571c0-1.366-.5-2.261-1.607-2.261-1.034,0-1.794.75-1.923,2.261Z" transform="translate(-190.828 -508.765)" fill="#454545"/>
    <path id="Tracé_10595" data-name="Tracé 10595" d="M253.819,511.236h.637v.812a2.367,2.367,0,0,1,2.577-.845l-.129.532a2.955,2.955,0,0,0-.725-.078,2.126,2.126,0,0,0-1.724,1.092v4.568h-.637Z" transform="translate(-185.33 -508.739)" fill="#454545"/>
    <path id="Tracé_10596" data-name="Tracé 10596" d="M254.514,511.286l.619-.6.637.6-.637.616Zm.3,1.9h.666v6.08h-.666Z" transform="translate(-181.963 -510.687)" fill="#454545"/>
    <path id="Tracé_10597" data-name="Tracé 10597" d="M255,514.414c0-2.452,1.21-3.309,2.723-3.309,1.455,0,2.157.946,2.157,3.029v.224h-4.22c.058,2.195,1.081,2.553,2.507,2.553a6.8,6.8,0,0,0,1.5-.258l.129.537a5.849,5.849,0,0,1-1.911.285C256.1,517.476,255,516.72,255,514.414Zm4.19-.571c0-1.366-.5-2.261-1.607-2.261-1.034,0-1.794.75-1.923,2.261Z" transform="translate(-179.603 -508.765)" fill="#454545"/>
    <path id="Tracé_10598" data-name="Tracé 10598" d="M256.049,517.213l.14-.549a5.722,5.722,0,0,0,1.549.28c.988,0,1.724-.4,1.724-1.081,0-1.6-3.2-1.1-3.2-3.158,0-1.036.836-1.6,2.04-1.6a4.811,4.811,0,0,1,1.385.235l-.129.521a4.512,4.512,0,0,0-1.385-.224c-.841,0-1.291.459-1.291,1.024,0,1.6,3.179,1.148,3.179,3.113,0,1.338-1.239,1.691-2.273,1.691A5.85,5.85,0,0,1,256.049,517.213Z" transform="translate(-174.527 -508.765)" fill="#454545"/>
    <path id="Tracé_10599" data-name="Tracé 10599" d="M257.471,510.812H258.6l2.835,7.637,3.133-7.637h1.1v7.877h-.684v-6.36l.035-1.047-3.027,7.407h-1.169l-2.723-7.373.058,1.047v6.327h-.689Z" transform="translate(-167.61 -510.112)" fill="#454545"/>
    <path id="Tracé_10600" data-name="Tracé 10600" d="M259.386,515.73c0-1.484,1.385-1.8,2.361-1.831l1.619-.034v-.924c0-1.069-.544-1.282-1.759-1.282a6.072,6.072,0,0,0-1.49.28l-.14-.515a5.358,5.358,0,0,1,1.888-.319c1.262,0,2.133.408,2.133,1.557v3.566a.614.614,0,0,0,.608.672l-.058.5h-.094a.962.962,0,0,1-1.052-.8,3.516,3.516,0,0,1-2.314.823A1.533,1.533,0,0,1,259.386,515.73Zm3.98.381v-1.752l-1.677.067c-1.116.045-1.677.554-1.677,1.226,0,.935.479,1.249,1.274,1.249a4.426,4.426,0,0,0,2.08-.79Z" transform="translate(-158.362 -508.754)" fill="#454545"/>
    <path id="Tracé_10601" data-name="Tracé 10601" d="M260.783,511.236h.643v.812A2.358,2.358,0,0,1,264,511.2l-.129.532a2.927,2.927,0,0,0-.719-.078,2.109,2.109,0,0,0-1.724,1.092v4.568h-.643Z" transform="translate(-151.594 -508.739)" fill="#454545"/>
    <path id="Tracé_10602" data-name="Tracé 10602" d="M261.592,514.369c0-2.127,1.2-3.264,2.811-3.264,1.8,0,2.7,1.137,2.7,3.2,0,2.15-1.186,3.174-2.77,3.174C262.655,517.476,261.592,516.384,261.592,514.369Zm4.856-.067c0-1.159-.38-2.676-2.081-2.676-1.683,0-2.11,1.5-2.11,2.688,0,1.327.5,2.643,2.133,2.643,1.655,0,2.058-1.405,2.058-2.654Z" transform="translate(-147.675 -508.765)" fill="#454545"/>
    <path id="Tracé_10603" data-name="Tracé 10603" d="M262.954,514.313c0-1.993,1.116-3.208,2.84-3.208a3.7,3.7,0,0,1,1.654.319l-.222.526a3.505,3.505,0,0,0-1.479-.314c-1.315,0-2.133,1.013-2.133,2.632,0,1.786.631,2.609,2.542,2.609a6.077,6.077,0,0,0,1.186-.157l.117.526a5.942,5.942,0,0,1-1.4.2C263.918,517.443,262.954,516.508,262.954,514.313Z" transform="translate(-141.077 -508.765)" fill="#454545"/>
    <path id="Tracé_10604" data-name="Tracé 10604" d="M264.072,515.73c0-1.484,1.385-1.8,2.361-1.831l1.619-.034v-.924c0-1.069-.544-1.282-1.759-1.282a6.071,6.071,0,0,0-1.49.28l-.14-.515a5.357,5.357,0,0,1,1.888-.319c1.262,0,2.133.408,2.133,1.557v3.566a.614.614,0,0,0,.608.672l-.058.5h-.094a.961.961,0,0,1-1.052-.8,3.5,3.5,0,0,1-2.314.823A1.533,1.533,0,0,1,264.072,515.73Zm3.979.381v-1.752l-1.677.067c-1.116.045-1.677.554-1.677,1.226,0,.935.479,1.249,1.274,1.249a4.427,4.427,0,0,0,2.081-.79Z" transform="translate(-135.662 -508.754)" fill="#454545"/>
    <path id="Tracé_10605" data-name="Tracé 10605" d="M265.415,511.286l.619-.6.637.6-.637.616Zm.3,1.9h.666v6.08h-.666Z" transform="translate(-129.156 -510.687)" fill="#454545"/>
    <path id="Tracé_10606" data-name="Tracé 10606" d="M266.161,511.257h.637v.711a4.015,4.015,0,0,1,2.262-.868c1.84,0,1.934,1.338,1.934,2.284v3.953h-.62v-3.774c0-1.114-.14-1.909-1.443-1.909a4.731,4.731,0,0,0-2.133.868v4.815h-.637Z" transform="translate(-125.542 -508.76)" fill="#454545"/>
    <path id="Tracé_10607" data-name="Tracé 10607" d="M267.47,514.414c0-2.452,1.21-3.309,2.729-3.309,1.455,0,2.151.946,2.151,3.029v.224h-4.214c.058,2.195,1.081,2.553,2.5,2.553a6.792,6.792,0,0,0,1.508-.258l.123.538a5.787,5.787,0,0,1-1.905.285C268.58,517.476,267.47,516.72,267.47,514.414Zm4.2-.571c0-1.366-.5-2.261-1.607-2.261-1.041,0-1.794.75-1.923,2.261Z" transform="translate(-119.201 -508.765)" fill="#454545"/>
    <path id="Tracé_10608" data-name="Tracé 10608" d="M268.7,517.213l.14-.549a5.721,5.721,0,0,0,1.549.28c.988,0,1.724-.4,1.724-1.081,0-1.6-3.2-1.1-3.2-3.158,0-1.036.836-1.6,2.04-1.6a4.813,4.813,0,0,1,1.385.235l-.129.521a4.507,4.507,0,0,0-1.385-.224c-.842,0-1.291.459-1.291,1.024,0,1.6,3.18,1.148,3.18,3.113,0,1.338-1.239,1.691-2.273,1.691A5.884,5.884,0,0,1,268.7,517.213Z" transform="translate(-113.254 -508.765)" fill="#454545"/>
  </g>
  <g id="Groupe_8440" data-name="Groupe 8440" transform="translate(38.368 102.615)">
    <path id="Tracé_10609" data-name="Tracé 10609" d="M248.665,513.4h7.066c6.844,0,11.543,2.8,11.543,9.378,0,6.55-4.249,9.518-11.373,9.518h-7.235Zm7.539,15.34c4.558,0,6.317-1.982,6.317-5.694,0-4.065-2.127-6.092-6.873-6.092h-2.268v11.786Z" transform="translate(-248.665 -513.108)" fill="#454545"/>
    <path id="Tracé_10610" data-name="Tracé 10610" d="M252.259,523.054c0-5.957,4.138-9.7,10.87-9.7,7.183,0,10.286,4.115,10.286,9.758,0,6.013-3.775,9.753-10.818,9.753C255.672,532.863,252.259,529.123,252.259,523.054Zm16.317.028c0-3.527-1.7-6.148-5.7-6.148-4.19,0-5.809,2.62-5.809,6.092,0,3.449,1.59,6.254,5.616,6.254,4.354,0,5.891-2.67,5.891-6.2Z" transform="translate(-231.255 -513.351)" fill="#454545"/>
    <path id="Tracé_10611" data-name="Tracé 10611" d="M256.361,513.4h4.752v7.67h8.381V513.4h4.751v18.9h-4.751v-7.782h-8.381V532.3h-4.752Z" transform="translate(-211.383 -513.108)" fill="#454545"/>
    <path id="Tracé_10612" data-name="Tracé 10612" d="M267.443,513.4h6.125l6.645,18.9H275.3l-1.87-5.537h-6.68L264.6,532.3h-4.751Zm4.862,10.072-1.981-7.267L268,523.477Z" transform="translate(-194.501 -513.108)" fill="#454545"/>
  </g>
  <path id="Tracé_10613" data-name="Tracé 10613" d="M277.6,539.959c7.241-12.323,17.93-20.261,29.753-27.148a69.022,69.022,0,0,0-18.953,9.383c-5.926,4.115-11.163,8.869-15.026,15.475A35.164,35.164,0,0,0,259.7,520.452c4.377,5.375,8.708,10.755,10.362,18.045-5.809-.5-10.631-2.256-14.277-6.2-4.88-5.274-6.154-11.662-5.6-18.515.123-1.528.871-2,2.425-1.982,9.082.117,15.744,3.986,20,11.668.328.588.637,1.193,1.233,2.324a29.922,29.922,0,0,0,1.455-2.984c2.081-5.929,6.288-10.52,11.2-14.171,4.05-3.007,12.252-7.124,23.973-7.121,8.34.447,10.217,1.908,11.221,2.206.654.162,1.607,1.444,1.467,2-3.016,12.328-7.282,24.008-19.654,30.838C295.627,540.91,287.136,541.622,277.6,539.959Z" transform="translate(-203.516 -459.298)" fill="#2a5a23"/>
  <path id="Tracé_10614" data-name="Tracé 10614" d="M268.707,549.663a21.744,21.744,0,0,1-.929-6.612q0-7.6,3.968-11.914t10.882-4.311q6.741,0,10.707,4.395a13.9,13.9,0,0,1,2.244,3.393,46.918,46.918,0,0,1,6.264-1.722c9.62-.674,11.807.071,13.607.457V493.821H302.984c-5.944,0-6.282,7.34-6.282,7.34v13.493q0,3.2.152,5.683t.444,4.546a29.462,29.462,0,0,0-9.064-8.857,21.988,21.988,0,0,0-11.209-2.8q-12.466,0-19.473,7.939-6.969,7.894-7.007,21.992a3.017,3.017,0,0,1,1.619-.33Q262.541,542.961,268.707,549.663Z" transform="translate(-201.205 -493.821)" fill="url(#linear-gradient)"/>
</svg>
